<svg
   width="300mm"
   height="300mm"
   viewBox="0 0 300 300"
   id="svg8"
   xmlns="http://www.w3.org/2000/svg">
  <path
     id="path10"
     style="color:#000000;font-style:normal;font-variant:normal;font-weight:normal;font-stretch:normal;font-size:medium;line-height:normal;font-family:sans-serif;font-variant-ligatures:normal;font-variant-position:normal;font-variant-caps:normal;font-variant-numeric:normal;font-variant-alternates:normal;font-variant-east-asian:normal;font-feature-settings:normal;font-variation-settings:normal;text-indent:0;text-align:start;text-decoration:none;text-decoration-line:none;text-decoration-style:solid;text-decoration-color:#000000;letter-spacing:normal;word-spacing:normal;text-transform:none;writing-mode:lr-tb;direction:ltr;text-orientation:mixed;dominant-baseline:auto;baseline-shift:baseline;text-anchor:start;white-space:normal;shape-padding:0;shape-margin:0;inline-size:0;clip-rule:nonzero;display:inline;overflow:visible;visibility:visible;opacity:1;isolation:auto;mix-blend-mode:normal;color-interpolation:sRGB;color-interpolation-filters:linearRGB;solid-color:#000000;solid-opacity:1;vector-effect:none;fill:#ff7f50;fill-opacity:1;fill-rule:nonzero;stroke:none;stroke-width:20.656;stroke-linecap:round;stroke-linejoin:round;stroke-miterlimit:4;stroke-dasharray:none;stroke-dashoffset:0;stroke-opacity:1;color-rendering:auto;image-rendering:auto;shape-rendering:auto;text-rendering:auto;enable-background:accumulate;stop-color:#000000;stop-opacity:1"
     d="m 14.966945,-269.30858 a 10.001,10.001 0 0 0 -10.0001479,9.99991 v 9.9999 a 10.001,10.001 0 0 0 10.0001479,10.00043 H 314.96697 a 10.001,10.001 0 0 0 9.9996,-10.00043 v -9.9999 a 10.001,10.001 0 0 0 -9.9996,-9.99991 z m 0,135.00003 a 10.001,10.001 0 0 0 -10.0001479,9.9999 v 9.99991 a 10.001,10.001 0 0 0 10.0001479,9.99991 H 314.96697 a 10.001,10.001 0 0 0 9.9996,-9.99991 v -9.99991 a 10.001,10.001 0 0 0 -9.9996,-9.9999 z m 0,135.00002697 A 10.001,10.001 0 0 0 4.9667971,10.691383 V 20.69129 A 10.001,10.001 0 0 0 14.966945,30.691196 H 314.96697 a 10.001,10.001 0 0 0 9.9996,-9.999906 v -9.999907 a 10.001,10.001 0 0 0 -9.9996,-9.99990603 z"
     transform="matrix(0.93749998,0,0,1,-4.6563722,269.30858)" />
</svg>
