<svg
   width="500mm"
   height="500mm"
   viewBox="0 0 500 499.99998"
   version="1.1"
   id="svg8"
   xmlns="http://www.w3.org/2000/svg">
  <g
     id="layer1">
    <path
       id="path833"
       style="color:#000000;fill:#000000;stroke-linecap:round;stroke-linejoin:round;-inkscape-stroke:none"
       d="M 195.95755,24.844995 C 153.07987,23.444184 111.40794,41.338298 80.236644,70.276684 19.56674,121.34159 8.8229866,215.88997 46.641437,283.59117 c 24.135419,45.91397 71.950943,75.92975 122.069003,85.44657 47.4163,7.95991 97.12371,-6.84941 134.73099,-36.21206 38.23195,38.23195 76.46388,76.4639 114.69584,114.69584 9.42802,-9.42802 18.85604,-18.85604 28.28406,-28.28406 C 408.32185,381.13798 370.22236,343.03849 332.12288,304.93901 367.87393,263.48169 377.25876,204.41498 363.22159,152.36607 345.86195,77.360452 271.2308,25.512244 195.95755,24.844995 Z m -5.42034,40.687956 c 61.30671,-1.294568 124.74008,41.392079 135.58432,103.844189 9.54694,40.67623 -0.943,85.79861 -30.74316,115.77836 -38.45904,41.78356 -105.45733,60.40633 -156.84112,31.69596 C 58.466965,282.60193 40.21047,161.37487 103.60911,103.00303 127.22969,80.464458 157.33069,65.239515 190.53721,65.532951 Z" />
  </g>
</svg>
