<svg
   width="512mm"
   height="512mm"
   viewBox="0 0 512 512"
   id="svg1"
   xmlns="http://www.w3.org/2000/svg">
  <path
     id="path5"
     style="display:inline;fill:#ff7f50;fill-opacity:1;stroke:none;stroke-width:20.6334;stroke-linecap:round;paint-order:fill markers stroke"
     d="m 256.00137,60.990508 c -38.97101,-1.337616 -84.31323,25.287923 -84.80411,67.946252 -1.95971,5.5369 4.35295,19.77287 -3.95661,18.62925 -35.8239,-1.40325 -71.898345,-5.18715 -107.631721,-1.64121 -31.799247,7.50935 -48.541846,42.64263 -44.666327,73.28359 1.111537,53.91758 4.0747,107.83517 1.448181,161.75275 -0.09683,26.50028 -2.67771,53.0964 -0.83144,79.52484 4.030513,30.48712 33.421605,55.69974 64.569261,50.95807 62.145316,-1.21636 124.290646,-3.81389 186.435976,-4.14975 60.08807,1.27836 120.18822,3.47876 180.26873,4.17653 34.33319,-3.63614 54.26622,-41.09637 50.26101,-73.06737 -1.10687,-54.35745 -4.12389,-108.71492 -1.48189,-163.07239 0.0967,-26.5005 2.67723,-53.09692 0.83101,-79.5256 -4.02749,-30.3947 -33.42761,-55.88357 -64.56473,-50.81909 -30.35748,1.21923 -60.71493,2.43843 -91.0724,3.65762 0.78919,-20.88159 0.0452,-43.74173 -15.91299,-59.472701 C 307.68315,70.001563 281.33471,60.92974 256.00137,60.990508 Z m 0,34.102999 c 22.4681,-0.559663 53.23037,12.624383 50.70194,39.126513 -0.81552,7.12278 3.85029,19.51113 -7.91851,16.11175 -27.02155,1.6336 -54.03651,1.98433 -81.03829,-0.21373 -8.87979,0.91841 -15.26848,-0.52736 -12.44386,-10.73384 -2.85773,-17.41629 7.79907,-34.12746 24.85499,-39.384987 8.18356,-3.316592 17.02772,-4.901805 25.84373,-4.905706 z M 70.885804,179.73988 c 33.437426,1.34287 66.874836,2.68575 100.312246,4.02862 0,7.96507 0,15.93013 0,23.8952 11.36766,0 22.73534,0 34.103,0 0.98154,-6.92703 -1.90134,-17.87676 1.31974,-22.47252 30.09764,1.64214 60.19527,2.45097 90.2929,0.3401 11.80383,-4.17848 10.24243,5.55571 9.78962,14.13588 -3.89509,11.84386 8.69961,7.19793 15.84979,7.99654 6.66117,-1.62459 21.29804,4.72653 18.25321,-6.60407 1.58441,-6.44303 -4.70055,-20.44571 6.59874,-17.55615 32.95486,-0.92218 65.9421,-3.46012 98.87621,-3.34847 19.77469,4.51157 21.51124,26.48869 19.83908,43.01449 -1.12563,52.59722 -3.9203,105.19446 -1.34564,157.79166 -0.0174,25.10003 2.7105,50.3794 0.74985,75.3549 -3.5827,18.3608 -23.24515,21.94871 -38.93197,19.87097 -60.82494,-1.14494 -121.64986,-3.82705 -182.47479,-3.98335 -57.744,1.44929 -115.48798,2.89859 -173.231986,4.34788 -20.683933,0.13847 -27.75475,-22.48704 -25.105472,-39.46849 1.111557,-53.91732 4.074719,-107.83465 1.448184,-161.75198 0.01727,-25.10031 -2.710877,-50.37992 -0.750289,-75.35571 2.667149,-11.0427 12.663892,-20.41314 24.407577,-20.2355 z m 185.114786,98.48041 c -60.01526,0.93773 -118.94304,15.58028 -175.823309,33.801 0,8.4652 0,16.93039 0,25.39558 76.799929,-24.54323 158.883229,-43.58987 239.525129,-27.91332 38.01762,6.39187 75.48465,15.94876 112.1207,27.91332 0,-8.46519 0,-16.93038 0,-25.39558 -56.92278,-17.8909 -115.86001,-32.77724 -175.82252,-33.801 z m 0,44.92273 c -47.93656,0.72283 -95.00937,12.48757 -140.44065,26.99874 1.22468,8.67829 -5.00552,27.52144 10.20577,16.97434 60.1484,-18.44912 124.46311,-31.44457 187.0869,-17.96244 28.31381,5.11916 56.24793,12.31929 83.58783,21.273 -1.18739,-9.5153 4.98427,-24.45597 -10.38794,-23.59547 -42.25438,-12.46472 -85.76961,-23.08961 -130.05191,-23.68817 z m 0,39.01048 c -39.06803,0.63049 -77.42996,10.11378 -114.45622,22.00362 -0.71088,11.22732 -1.788,22.68731 13.37366,12.28947 51.32154,-15.79319 106.43863,-24.26785 159.31441,-10.79899 17.41283,0.26836 45.66537,17.03766 56.22437,11.07908 5.36541,-17.39368 -14.91163,-16.19503 -26.72489,-20.51337 -28.65383,-7.53137 -57.98812,-13.77496 -87.73133,-14.05981 z" />
</svg>
