<?xml version="1.0" encoding="UTF-8" standalone="no"?>
<svg
   width="100mm"
   height="100mm"
   viewBox="0 0 100 100"
   version="1.1"
   id="svg8"
   sodipodi:docname="shopping-cart-coral.svg"
   inkscape:version="1.3 (0e150ed6c4, 2023-07-21)"
   inkscape:export-filename="shopping-cart-coral.png"
   inkscape:export-xdpi="300.01199"
   inkscape:export-ydpi="300.01199"
   xmlns:inkscape="http://www.inkscape.org/namespaces/inkscape"
   xmlns:sodipodi="http://sodipodi.sourceforge.net/DTD/sodipodi-0.dtd"
   xmlns="http://www.w3.org/2000/svg"
   xmlns:svg="http://www.w3.org/2000/svg"
   xmlns:rdf="http://www.w3.org/1999/02/22-rdf-syntax-ns#"
   xmlns:cc="http://creativecommons.org/ns#"
   xmlns:dc="http://purl.org/dc/elements/1.1/">
  <defs
     id="defs2" />
  <sodipodi:namedview
     id="base"
     pagecolor="#ffffff"
     bordercolor="#666666"
     borderopacity="1.0"
     inkscape:pageopacity="0.0"
     inkscape:pageshadow="2"
     inkscape:zoom="1.4"
     inkscape:cx="65"
     inkscape:cy="101.78571"
     inkscape:document-units="mm"
     inkscape:current-layer="g1256"
     inkscape:document-rotation="0"
     showgrid="true"
     inkscape:snap-bbox="true"
     inkscape:snap-bbox-edge-midpoints="true"
     inkscape:snap-bbox-midpoints="true"
     inkscape:bbox-nodes="true"
     inkscape:bbox-paths="true"
     inkscape:window-width="1920"
     inkscape:window-height="1009"
     inkscape:window-x="-8"
     inkscape:window-y="-8"
     inkscape:window-maximized="1"
     inkscape:snap-intersection-paths="true"
     inkscape:snap-object-midpoints="true"
     inkscape:snap-grids="true"
     inkscape:object-paths="true"
     inkscape:snap-smooth-nodes="true"
     inkscape:snap-midpoints="true"
     inkscape:snap-center="true"
     inkscape:snap-text-baseline="true"
     inkscape:snap-nodes="true"
     inkscape:snap-global="false"
     inkscape:snap-page="false"
     inkscape:snap-to-guides="true"
     inkscape:showpageshadow="2"
     inkscape:pagecheckerboard="0"
     inkscape:deskcolor="#d1d1d1">
    <inkscape:grid
       id="grid1"
       units="mm"
       originx="0"
       originy="0"
       spacingx="0.99999999"
       spacingy="0.99999999"
       empcolor="#0099e5"
       empopacity="0.30196078"
       color="#0099e5"
       opacity="0.14901961"
       empspacing="5"
       dotted="false"
       gridanglex="30"
       gridanglez="30"
       visible="true" />
  </sodipodi:namedview>
  <metadata
     id="metadata5">
    <rdf:RDF>
      <cc:Work
         rdf:about="">
        <dc:format>image/svg+xml</dc:format>
        <dc:type
           rdf:resource="http://purl.org/dc/dcmitype/StillImage" />
        <dc:title />
      </cc:Work>
    </rdf:RDF>
  </metadata>
  <g
     inkscape:label="Layer 1"
     inkscape:groupmode="layer"
     id="layer1">
    <g
       id="g1256"
       transform="translate(-10.972278,12.121885)">
      <path
         id="path860"
         style="color:#000000;fill:#ff7f50;fill-opacity:1;stroke-width:1.2738;stroke-linecap:round;stroke-linejoin:round;-inkscape-stroke:none"
         d="m 15.215237,7.3240086 c -1.758774,1.082e-4 -3.184516,1.4258501 -3.184625,3.1846244 1.09e-4,1.758775 1.425851,3.184517 3.184625,3.184626 h 8.309118 v 3.184624 c 0.0041,0.262399 0.04054,0.52329 0.108617,0.776738 0.0018,0.02306 0.0037,0.0461 0.006,0.06912 l 7.314499,26.49268 1.384962,6.92613 c 2.17e-4,0.0027 4.36e-4,0.0052 6.59e-4,0.0079 l 0.273833,1.365874 0.739217,5.038921 c 0.02201,0.08439 0.04749,0.167838 0.07635,0.250135 0.01695,0.06287 0.03583,0.125227 0.05661,0.186944 0.09518,0.272404 0.226937,0.530609 0.39166,0.767523 0.03047,0.03935 0.06186,0.07798 0.09413,0.115852 0.161708,0.207682 0.348541,0.394515 0.556223,0.556223 0.03893,0.03343 0.07864,0.06591 0.119138,0.09742 0.236952,0.164493 0.495154,0.29603 0.767522,0.391002 0.06151,0.02055 0.123635,0.03921 0.186286,0.05595 0.278549,0.08444 0.567358,0.130279 0.85836,0.136258 0.0052,8.9e-4 0.01057,0.0018 0.01579,0.0027 h 58.306011 c 1.758851,7.5e-5 3.184699,-1.425774 3.184625,-3.184623 7.5e-5,-1.758851 -1.425774,-3.1847 -3.184625,-3.184625 H 39.08478 l -0.363354,-3.16751 h 56.404318 c 1.432239,1.96e-4 2.688434,-0.955687 3.070089,-2.336138 l 8.426957,-30.51855 c 0.55845,-2.027627 -0.96696,-4.03022 -3.07009,-4.030478 H 29.893604 v -3.184663 c -0.0011,-0.19709 -0.0205,-0.393655 -0.05793,-0.5871609 -0.01511,-0.064594 -0.03223,-0.1286903 -0.05135,-0.1922094 -0.03065,-0.1291132 -0.06934,-0.2561846 -0.115851,-0.3804701 -0.02825,-0.066632 -0.05877,-0.1322697 -0.0915,-0.1968168 C 29.524533,9.0380296 29.465414,8.9272514 29.399903,8.82025 29.357113,8.754089 29.311883,8.689533 29.264302,8.6267234 29.194232,8.5308704 29.118852,8.4390092 29.038522,8.3515733 28.983255,8.2919087 28.92573,8.2343714 28.866063,8.1791116 28.77863,8.098786 28.686767,8.023404 28.590914,7.9533312 28.528103,7.905755 28.463547,7.8605225 28.397388,7.8177319 28.290389,7.7522205 28.179607,7.6931037 28.065629,7.6406615 28.001086,7.6079377 27.935437,7.5774175 27.868811,7.5491647 27.744527,7.5026587 27.617454,7.4639607 27.488341,7.433313 27.424821,7.414206 27.36072,7.397074 27.296131,7.381966 27.102625,7.344529 26.906061,7.325142 26.70897,7.324034 Z M 30.893489,20.06185 H 99.367526 L 92.702718,44.209175 H 37.558952 Z m 12.529173,41.65552 c -3.292804,0 -6.003261,2.710455 -6.003261,6.00326 -10e-7,3.292808 2.710456,6.003261 6.003261,6.003261 3.292806,0 6.003261,-2.710454 6.003261,-6.003261 -10e-7,-3.292805 -2.710456,-6.00326 -6.003261,-6.00326 z m 43.687545,0 c -3.292805,0 -6.00326,2.710455 -6.003261,6.00326 0,3.292808 2.710455,6.003261 6.003261,6.003261 3.292805,0 6.003261,-2.710454 6.003261,-6.003261 -10e-7,-3.292805 -2.710457,-6.00326 -6.003261,-6.00326 z m -43.687545,3.821154 c 1.227579,0 2.182107,0.954528 2.182107,2.182106 0,1.227578 -0.954528,2.181448 -2.182107,2.181448 -1.227578,0 -2.181448,-0.953868 -2.181448,-2.181448 0,-1.227578 0.95387,-2.182106 2.181448,-2.182106 z m 43.687545,0 c 1.227578,0 2.182106,0.954528 2.182106,2.182106 0,1.227578 -0.954528,2.181448 -2.182106,2.181448 -1.227579,0 -2.182107,-0.953868 -2.182107,-2.181448 10e-7,-1.227578 0.954528,-2.182106 2.182107,-2.182106 z"
         sodipodi:nodetypes="ccccccccccccccccccccccccccccccccccccccccccccccccccccccssssssssssssssssssss" />
    </g>
  </g>
</svg>
